<?xml version="1.0" ?><svg id="Layer_3" style="enable-background:new 0 0 64 64;" version="1.1" viewBox="0 0 64 64" xml:space="preserve" xmlns="http://www.w3.org/2000/svg" xmlns:xlink="http://www.w3.org/1999/xlink"><g><path d="M44,11c2.757,0,5-2.243,5-5s-2.243-5-5-5s-5,2.243-5,5S41.243,11,44,11z M41.737,7.947L43.8,6.4l1.656,2.207   C45.022,8.85,44.531,9,44,9C43.092,9,42.287,8.586,41.737,7.947z M44,3c1.654,0,3,1.346,3,3c0,0.375-0.077,0.731-0.204,1.062   L44.8,4.4c-0.332-0.441-0.959-0.532-1.399-0.2L41,6c0,0,0,0,0,0C41,4.346,42.346,3,44,3z"/><path d="M20.801,26.921L35,25.427V27h2v-1.784l1.628-0.171l0.424,1.272C39.188,26.725,39.569,27,40,27h2   c0.266,0,0.52-0.105,0.707-0.293l0.93-0.93l6.331-4.221l0.745,1.241l-7.371,6.45c-0.158,0.138-0.269,0.323-0.316,0.527   l-2.874,12.454l-2.468,0.823C37.275,43.188,37,43.569,37,44v2c0,0.553,0.447,1,1,1h7c0.553,0,1-0.447,1-1v-2   c0-0.266-0.105-0.52-0.293-0.707l-0.55-0.55l3.675-10.105l0.485-0.34l2.528,9.269l-2.4,1.601c-0.42,0.279-0.565,0.828-0.34,1.279   l1,2C50.278,46.793,50.629,47,51,47c0.091,0,0.184-0.013,0.274-0.038l7-2C58.704,44.839,59,44.446,59,44v-2   c0-0.379-0.214-0.725-0.553-0.895l-1.49-0.745L56.044,27.59l0.427-0.299c1.279-0.896,2.132-2.256,2.416-3.764l3.819-3.819   c0.343-0.343,0.391-0.883,0.112-1.28l-5.027-7.183c-1.416-2.022-3.979-2.978-6.372-2.38L50.835,9.01   c-2.149,0.054-4.133,1.136-5.331,2.931l-0.336,0.504c-0.215,0.322-0.225,0.738-0.025,1.069l2.16,3.599L42.638,21H41   c-0.155,0-0.309,0.036-0.447,0.105l-2,1c-0.377,0.189-0.573,0.588-0.532,0.992l-18.125,1.908c-0.418,0.044-0.764,0.345-0.865,0.752   l-1,4l1.939,0.485L20.801,26.921z M53,19v-3.5c0-0.224-0.039-0.437-0.094-0.643l2.963,4.656l-3.525,2.115l-0.709-1.182l0.921-0.614   C52.833,19.646,53,19.334,53,19z M44,45h-5v-0.279l2.316-0.772c0.33-0.109,0.58-0.384,0.658-0.724l0.207-0.899l0.916,0.229   l-0.038,0.103c-0.133,0.365-0.042,0.774,0.232,1.049L44,44.414V45z M57,42.618v0.628l-5.477,1.564l-0.234-0.468l2.266-1.511   c0.358-0.238,0.523-0.68,0.41-1.095L53.764,41h1.234l0.005,0.071c0.024,0.353,0.234,0.665,0.55,0.823L57,42.618z M54.855,39h-1.637   l-2.16-7.92l3.077-2.154L54.855,39z M55.325,25.652l-7.898,5.529c-0.169,0.118-0.296,0.285-0.366,0.478l-3.276,9.008l-1.154-0.288   l2.27-9.838l7.688-6.727l4.231-2.539c0.116,0.374,0.18,0.764,0.18,1.161C57,23.715,56.374,24.918,55.325,25.652z M56.153,12.391   l4.546,6.496l-1.927,1.928c-0.156-0.548-0.389-1.074-0.699-1.561l-5.442-8.552C53.999,10.62,55.351,11.246,56.153,12.391z    M50.471,11.03l1.635,2.57C51.67,13.231,51.114,13,50.5,13c-1.08,0-1.993,0.692-2.342,1.652l-0.974-1.624   C47.941,11.905,49.143,11.183,50.471,11.03z M41.236,23H43c0.234,0,0.461-0.082,0.641-0.232l6-5C49.868,17.578,50,17.297,50,17   v-1.5c0-0.276,0.225-0.5,0.5-0.5s0.5,0.224,0.5,0.5v2.965l-8.555,5.703c-0.055,0.037-0.105,0.078-0.152,0.125L41.586,25h-0.865   l-0.498-1.494L41.236,23z"/><rect height="2" width="2" x="18" y="32"/><rect height="2" width="2" x="18" y="36"/><rect height="2" width="2" x="18" y="40"/><rect height="2" width="2" x="18" y="44"/><rect height="2" transform="matrix(0.7071 -0.7071 0.7071 0.7071 -27.1335 16.8787)" width="2" x="5.808" y="40.192"/><rect height="2" transform="matrix(0.7071 -0.7071 0.7071 0.7071 -18.6482 20.3934)" width="2" x="14.293" y="31.707"/><rect height="2" transform="matrix(0.7071 -0.7071 0.7071 0.7071 -21.4763 19.222)" width="2" x="11.465" y="34.535"/><rect height="2" transform="matrix(0.7071 -0.7071 0.7071 0.7071 -24.3054 18.0501)" width="2" x="8.636" y="37.364"/><rect height="2" transform="matrix(0.7071 -0.7071 0.7071 0.7071 -17.6481 28.4641)" width="2" x="24.535" y="34.535"/><rect height="2" transform="matrix(0.7071 -0.7071 0.7071 0.7071 -19.9914 34.1213)" width="2" x="30.192" y="40.192"/><rect height="2" transform="matrix(0.7071 -0.7071 0.7071 0.7071 -18.8199 31.2932)" width="2" x="27.364" y="37.364"/><rect height="2" transform="matrix(0.7071 -0.7071 0.7071 0.7071 -16.4766 25.636)" width="2" x="21.707" y="31.707"/><path d="M3.833,54.753l-1.54,1.54l1.414,1.414l1.54-1.54C5.771,56.515,6.363,56.769,7,56.899V59h2v-2.101   c0.637-0.13,1.229-0.384,1.753-0.732l1.54,1.54l1.414-1.414l-1.54-1.54c0.348-0.524,0.602-1.116,0.732-1.753H15v-2h-2.101   c-0.13-0.637-0.384-1.229-0.732-1.753l1.54-1.54l-1.414-1.414l-1.54,1.54C10.229,47.485,9.637,47.231,9,47.101V45H7v2.101   c-0.637,0.13-1.229,0.384-1.753,0.732l-1.54-1.54l-1.414,1.414l1.54,1.54C3.485,49.771,3.231,50.363,3.101,51H1v2h2.101   C3.231,53.637,3.485,54.229,3.833,54.753z M6.293,51.707l1.414-1.414l-0.992-0.992C7.106,49.113,7.538,49,8,49   s0.894,0.113,1.285,0.301l-0.992,0.992l1.414,1.414l0.992-0.992C10.887,51.106,11,51.538,11,52s-0.113,0.894-0.301,1.285   l-0.992-0.992l-1.414,1.414l0.992,0.992C8.894,54.887,8.462,55,8,55s-0.894-0.113-1.285-0.301l0.992-0.992l-1.414-1.414   l-0.992,0.992C5.113,52.894,5,52.462,5,52s0.113-0.894,0.301-1.285L6.293,51.707z"/><path d="M33,51v-2h-2.101c-0.13-0.637-0.384-1.229-0.732-1.753l1.49-1.49l-1.414-1.414l-1.49,1.49   c-0.524-0.348-1.116-0.602-1.753-0.732V43h-2v2.101c-0.637,0.13-1.229,0.384-1.753,0.732l-1.49-1.49l-1.414,1.414l1.49,1.49   c-0.348,0.524-0.602,1.116-0.732,1.753H19v2h2.101c0.13,0.637,0.384,1.229,0.732,1.753l-1.49,1.49l1.414,1.414l1.49-1.49   c0.524,0.348,1.116,0.602,1.753,0.732V57h2v-2.101c0.637-0.13,1.229-0.384,1.753-0.732l1.49,1.49l1.414-1.414l-1.49-1.49   c0.348-0.524,0.602-1.116,0.732-1.753H33z M26,53c-1.654,0-3-1.346-3-3s1.346-3,3-3s3,1.346,3,3S27.654,53,26,53z"/><rect height="2" width="2" x="25" y="49"/><path d="M63,51v-2H38c-0.553,0-1,0.447-1,1v3h-3c-0.553,0-1,0.447-1,1v3h-3c-0.553,0-1,0.447-1,1v3H1v2h62v-2H31v-2h32v-2H35v-2h28   v-2H39v-2H63z"/></g></svg>