<?xml version="1.0" ?><svg viewBox="0 0 64 64" xmlns="http://www.w3.org/2000/svg"><path d="M61,25H57V7a5.006,5.006,0,0,0-5-5H34a5.006,5.006,0,0,0-5,5V57a5.006,5.006,0,0,0,5,5H52a5.006,5.006,0,0,0,5-5V31h4a2,2,0,0,0,2-2V27A2,2,0,0,0,61,25ZM55,57a3,3,0,0,1-3,3H34a3,3,0,0,1-3-3V7a3,3,0,0,1,3-3H52a3,3,0,0,1,3,3V25H44.188a6,6,0,1,0,0,6H55ZM43,28a4,4,0,1,1-4-4A4,4,0,0,1,43,28Zm18,1H44.91a5.6,5.6,0,0,0,0-2H61Z"/><rect height="2" width="2" x="38" y="7"/><rect height="2" width="2" x="42" y="7"/><rect height="2" width="2" x="46" y="7"/><path d="M39,37a3.989,3.989,0,0,0-3,6.63V47a3,3,0,0,0,6,0V43.63A3.989,3.989,0,0,0,39,37Zm1.33,5.479a1,1,0,0,0-.33.743V47a1,1,0,0,1-2,0V43.222a1,1,0,0,0-.33-.743A1.974,1.974,0,0,1,37,41a2,2,0,0,1,4,0A1.974,1.974,0,0,1,40.33,42.479Z"/><path d="M18,25H10a8.009,8.009,0,0,0-8,8,1,1,0,0,0,1,1H6v4.465a7.487,7.487,0,0,1-2.207,5.328A9.472,9.472,0,0,0,1,50.535V61a1,1,0,0,0,1,1H16a1,1,0,0,0,1-1V50.535a9.472,9.472,0,0,0-2.793-6.742A7.487,7.487,0,0,1,12,38.465V33.414l1.187-1.187a13.427,13.427,0,0,0,2.324,5.61l.176.245,1.626-1.164-.174-.244A11.419,11.419,0,0,1,15.046,31H18a1,1,0,0,0,1-1V26A1,1,0,0,0,18,25ZM8,34h2v2H8Zm7,20.132L3,55.847V53.868l12-1.715ZM3,60V57.868l12-1.715V60Zm9.793-14.793a7.483,7.483,0,0,1,2.188,4.928L3,51.847V50.535a7.487,7.487,0,0,1,2.207-5.328A9.472,9.472,0,0,0,8,38.465V38h2v.465A9.472,9.472,0,0,0,12.793,45.207ZM17,29H14a1,1,0,0,0-.707.293L10.586,32h-6.5A6.01,6.01,0,0,1,10,27h7Z"/><rect height="2" width="2" x="21" y="27"/><rect height="2" width="2" x="25" y="31"/><rect height="2" width="2" x="25" y="27"/><rect height="2" width="2" x="25" y="23"/></svg>