<?xml version="1.0" ?><svg viewBox="0 0 64 64" xmlns="http://www.w3.org/2000/svg"><title/><g id="faucet"><path d="M18.92,57a1,1,0,0,1-1-1V49a1,1,0,0,1,2,0v7A1,1,0,0,1,18.92,57Zm1,4V60a1,1,0,0,0-2,0v1a1,1,0,0,0,2,0Zm-4-11V49a1,1,0,0,0-2,0v1a1,1,0,0,0,2,0ZM60.19,17.94V35.88a1,1,0,0,1-1,1H54a3,3,0,0,1-3-3V33H26.92a4,4,0,0,0-4,4v4h.92a3,3,0,0,1,0,6H10a3,3,0,0,1,0-6h1V37A16,16,0,0,1,27,21h3.94V17h-7a3,3,0,1,1,0-6h8a1,1,0,0,1,1,1h2a1,1,0,0,1,1-1h8a3,3,0,0,1,0,6h-7v4H51V19.94a3,3,0,0,1,3-3h5.19A1,1,0,0,1,60.19,17.94ZM23.94,15h20a1,1,0,0,0,0-2h-7a1,1,0,0,1-1,1h-4a1,1,0,0,1-1-1h-7a1,1,0,1,0,0,2Zm9,6h2V17h-2ZM23.83,43H10a1,1,0,0,0,0,2H23.83a1,1,0,0,0,0-2ZM51,31V23H27A14,14,0,0,0,13,37v4h7.91V37a6,6,0,0,1,6-6Zm7.19-12.06H54a1,1,0,0,0-1,1V33.88a1,1,0,0,0,1,1h4.19Z"/></g></svg>